<mxfile host="app.diagrams.net" agent="Mozilla/5.0 (Windows NT 10.0; Win64; x64) AppleWebKit/537.36 (KHTML, like Gecko) Chrome/138.0.0.0 Safari/537.36 Edg/138.0.0.0" version="28.0.3">
  <diagram name="第 1 页" id="OgtLJh3yWeiekyWK50O1">
    <mxGraphModel dx="2216" dy="1266" grid="1" gridSize="10" guides="1" tooltips="1" connect="1" arrows="1" fold="1" page="1" pageScale="1" pageWidth="1654" pageHeight="2336" math="0" shadow="0">
      <root>
        <mxCell id="0" />
        <mxCell id="1" parent="0" />
        <mxCell id="SK8zxFsy-qk9dLqZPhYN-25" style="edgeStyle=orthogonalEdgeStyle;rounded=0;orthogonalLoop=1;jettySize=auto;html=1;exitX=0.5;exitY=1;exitDx=0;exitDy=0;strokeColor=#FF6666;fontStyle=1;fontSize=19;" edge="1" parent="1" source="SK8zxFsy-qk9dLqZPhYN-16" target="SK8zxFsy-qk9dLqZPhYN-17">
          <mxGeometry relative="1" as="geometry" />
        </mxCell>
        <mxCell id="SK8zxFsy-qk9dLqZPhYN-29" style="rounded=0;orthogonalLoop=1;jettySize=auto;html=1;exitX=1;exitY=1;exitDx=0;exitDy=0;entryX=0;entryY=0;entryDx=0;entryDy=0;fontStyle=1;fontSize=19;" edge="1" parent="1" source="SK8zxFsy-qk9dLqZPhYN-16" target="SK8zxFsy-qk9dLqZPhYN-20">
          <mxGeometry relative="1" as="geometry" />
        </mxCell>
        <mxCell id="SK8zxFsy-qk9dLqZPhYN-16" value="1" style="rounded=1;whiteSpace=wrap;html=1;fontStyle=1;fontSize=19;" vertex="1" parent="1">
          <mxGeometry x="900" y="360" width="80" height="50" as="geometry" />
        </mxCell>
        <mxCell id="SK8zxFsy-qk9dLqZPhYN-26" style="edgeStyle=orthogonalEdgeStyle;rounded=0;orthogonalLoop=1;jettySize=auto;html=1;exitX=0.5;exitY=1;exitDx=0;exitDy=0;entryX=0.5;entryY=0;entryDx=0;entryDy=0;strokeColor=#FF6666;fontStyle=1;fontSize=19;" edge="1" parent="1" source="SK8zxFsy-qk9dLqZPhYN-17" target="SK8zxFsy-qk9dLqZPhYN-18">
          <mxGeometry relative="1" as="geometry" />
        </mxCell>
        <mxCell id="SK8zxFsy-qk9dLqZPhYN-17" value="2" style="rounded=1;whiteSpace=wrap;html=1;fontStyle=1;fontSize=19;" vertex="1" parent="1">
          <mxGeometry x="900" y="450" width="80" height="50" as="geometry" />
        </mxCell>
        <mxCell id="SK8zxFsy-qk9dLqZPhYN-27" style="rounded=0;orthogonalLoop=1;jettySize=auto;html=1;exitX=0.25;exitY=1;exitDx=0;exitDy=0;strokeColor=#FF6666;fontStyle=1;fontSize=19;" edge="1" parent="1" source="SK8zxFsy-qk9dLqZPhYN-18" target="SK8zxFsy-qk9dLqZPhYN-19">
          <mxGeometry relative="1" as="geometry" />
        </mxCell>
        <mxCell id="SK8zxFsy-qk9dLqZPhYN-28" style="rounded=0;orthogonalLoop=1;jettySize=auto;html=1;exitX=0.75;exitY=1;exitDx=0;exitDy=0;entryX=0.5;entryY=0;entryDx=0;entryDy=0;strokeColor=#000000;fontStyle=1;fontSize=19;" edge="1" parent="1" source="SK8zxFsy-qk9dLqZPhYN-18" target="SK8zxFsy-qk9dLqZPhYN-22">
          <mxGeometry relative="1" as="geometry" />
        </mxCell>
        <mxCell id="SK8zxFsy-qk9dLqZPhYN-18" value="4" style="rounded=1;whiteSpace=wrap;html=1;fontStyle=1;fontSize=19;" vertex="1" parent="1">
          <mxGeometry x="900" y="540" width="80" height="50" as="geometry" />
        </mxCell>
        <mxCell id="SK8zxFsy-qk9dLqZPhYN-35" style="edgeStyle=orthogonalEdgeStyle;rounded=0;orthogonalLoop=1;jettySize=auto;html=1;exitX=0;exitY=0.5;exitDx=0;exitDy=0;entryX=0;entryY=0.5;entryDx=0;entryDy=0;strokeColor=#FF6666;fontStyle=1;fontSize=19;" edge="1" parent="1" source="SK8zxFsy-qk9dLqZPhYN-19" target="SK8zxFsy-qk9dLqZPhYN-17">
          <mxGeometry relative="1" as="geometry" />
        </mxCell>
        <mxCell id="SK8zxFsy-qk9dLqZPhYN-66" style="rounded=0;orthogonalLoop=1;jettySize=auto;html=1;exitX=1;exitY=1;exitDx=0;exitDy=0;entryX=0;entryY=0;entryDx=0;entryDy=0;" edge="1" parent="1" source="SK8zxFsy-qk9dLqZPhYN-19" target="SK8zxFsy-qk9dLqZPhYN-23">
          <mxGeometry relative="1" as="geometry" />
        </mxCell>
        <mxCell id="SK8zxFsy-qk9dLqZPhYN-19" value="6" style="rounded=1;whiteSpace=wrap;html=1;fontStyle=1;fontSize=19;" vertex="1" parent="1">
          <mxGeometry x="850" y="630" width="80" height="50" as="geometry" />
        </mxCell>
        <mxCell id="SK8zxFsy-qk9dLqZPhYN-39" style="edgeStyle=orthogonalEdgeStyle;rounded=0;orthogonalLoop=1;jettySize=auto;html=1;exitX=0.5;exitY=1;exitDx=0;exitDy=0;entryX=0.5;entryY=0;entryDx=0;entryDy=0;fontStyle=1;fontSize=19;" edge="1" parent="1" source="SK8zxFsy-qk9dLqZPhYN-20" target="SK8zxFsy-qk9dLqZPhYN-21">
          <mxGeometry relative="1" as="geometry" />
        </mxCell>
        <mxCell id="SK8zxFsy-qk9dLqZPhYN-20" value="3" style="rounded=1;whiteSpace=wrap;html=1;fontStyle=1;fontSize=19;" vertex="1" parent="1">
          <mxGeometry x="1020" y="450" width="80" height="50" as="geometry" />
        </mxCell>
        <mxCell id="SK8zxFsy-qk9dLqZPhYN-40" style="rounded=0;orthogonalLoop=1;jettySize=auto;html=1;exitX=0.5;exitY=1;exitDx=0;exitDy=0;fontStyle=1;fontSize=19;" edge="1" parent="1" source="SK8zxFsy-qk9dLqZPhYN-21" target="SK8zxFsy-qk9dLqZPhYN-22">
          <mxGeometry relative="1" as="geometry" />
        </mxCell>
        <mxCell id="SK8zxFsy-qk9dLqZPhYN-21" value="5" style="rounded=1;whiteSpace=wrap;html=1;fontStyle=1;fontSize=19;" vertex="1" parent="1">
          <mxGeometry x="1020" y="540" width="80" height="50" as="geometry" />
        </mxCell>
        <mxCell id="SK8zxFsy-qk9dLqZPhYN-37" style="edgeStyle=orthogonalEdgeStyle;rounded=0;orthogonalLoop=1;jettySize=auto;html=1;exitX=0.5;exitY=1;exitDx=0;exitDy=0;entryX=0.5;entryY=0;entryDx=0;entryDy=0;strokeColor=#000000;fontStyle=1;fontSize=19;" edge="1" parent="1" source="SK8zxFsy-qk9dLqZPhYN-22" target="SK8zxFsy-qk9dLqZPhYN-23">
          <mxGeometry relative="1" as="geometry" />
        </mxCell>
        <mxCell id="SK8zxFsy-qk9dLqZPhYN-22" value="7" style="rounded=1;whiteSpace=wrap;html=1;fontStyle=1;fontSize=19;" vertex="1" parent="1">
          <mxGeometry x="970" y="630" width="80" height="50" as="geometry" />
        </mxCell>
        <mxCell id="SK8zxFsy-qk9dLqZPhYN-38" style="edgeStyle=orthogonalEdgeStyle;rounded=0;orthogonalLoop=1;jettySize=auto;html=1;exitX=0.5;exitY=1;exitDx=0;exitDy=0;entryX=0.5;entryY=0;entryDx=0;entryDy=0;fontStyle=1;fontSize=19;" edge="1" parent="1" source="SK8zxFsy-qk9dLqZPhYN-23" target="SK8zxFsy-qk9dLqZPhYN-24">
          <mxGeometry relative="1" as="geometry" />
        </mxCell>
        <mxCell id="SK8zxFsy-qk9dLqZPhYN-23" value="8" style="rounded=1;whiteSpace=wrap;html=1;fontStyle=1;fontSize=19;" vertex="1" parent="1">
          <mxGeometry x="970" y="710" width="80" height="50" as="geometry" />
        </mxCell>
        <mxCell id="SK8zxFsy-qk9dLqZPhYN-24" value="9" style="rounded=1;whiteSpace=wrap;html=1;strokeColor=#FF0000;fontStyle=1;fontSize=19;" vertex="1" parent="1">
          <mxGeometry x="970" y="790" width="80" height="50" as="geometry" />
        </mxCell>
        <mxCell id="SK8zxFsy-qk9dLqZPhYN-42" style="edgeStyle=orthogonalEdgeStyle;rounded=0;orthogonalLoop=1;jettySize=auto;html=1;exitX=0.5;exitY=1;exitDx=0;exitDy=0;entryX=0.5;entryY=0;entryDx=0;entryDy=0;fontStyle=1;fontSize=19;" edge="1" parent="1">
          <mxGeometry relative="1" as="geometry">
            <mxPoint x="939.5799999999999" y="320" as="sourcePoint" />
            <mxPoint x="939.5799999999999" y="360" as="targetPoint" />
          </mxGeometry>
        </mxCell>
        <mxCell id="SK8zxFsy-qk9dLqZPhYN-43" style="edgeStyle=orthogonalEdgeStyle;rounded=0;orthogonalLoop=1;jettySize=auto;html=1;exitX=0.5;exitY=1;exitDx=0;exitDy=0;strokeColor=#000000;fontStyle=1;fontSize=19;" edge="1" parent="1" source="SK8zxFsy-qk9dLqZPhYN-45" target="SK8zxFsy-qk9dLqZPhYN-48">
          <mxGeometry relative="1" as="geometry" />
        </mxCell>
        <mxCell id="SK8zxFsy-qk9dLqZPhYN-44" style="rounded=0;orthogonalLoop=1;jettySize=auto;html=1;exitX=1;exitY=1;exitDx=0;exitDy=0;entryX=0;entryY=0;entryDx=0;entryDy=0;fontStyle=1;fontSize=19;strokeColor=#FF3333;" edge="1" parent="1" source="SK8zxFsy-qk9dLqZPhYN-45" target="SK8zxFsy-qk9dLqZPhYN-55">
          <mxGeometry relative="1" as="geometry" />
        </mxCell>
        <mxCell id="SK8zxFsy-qk9dLqZPhYN-45" value="1" style="rounded=1;whiteSpace=wrap;html=1;fontStyle=1;fontSize=19;" vertex="1" parent="1">
          <mxGeometry x="550" y="360" width="80" height="50" as="geometry" />
        </mxCell>
        <mxCell id="SK8zxFsy-qk9dLqZPhYN-46" style="edgeStyle=orthogonalEdgeStyle;rounded=0;orthogonalLoop=1;jettySize=auto;html=1;exitX=0.5;exitY=1;exitDx=0;exitDy=0;entryX=0.5;entryY=0;entryDx=0;entryDy=0;fontStyle=1;fontSize=19;" edge="1" parent="1" source="SK8zxFsy-qk9dLqZPhYN-48" target="SK8zxFsy-qk9dLqZPhYN-51">
          <mxGeometry relative="1" as="geometry" />
        </mxCell>
        <mxCell id="SK8zxFsy-qk9dLqZPhYN-48" value="2" style="rounded=1;whiteSpace=wrap;html=1;fontStyle=1;fontSize=19;" vertex="1" parent="1">
          <mxGeometry x="550" y="450" width="80" height="50" as="geometry" />
        </mxCell>
        <mxCell id="SK8zxFsy-qk9dLqZPhYN-49" style="rounded=0;orthogonalLoop=1;jettySize=auto;html=1;exitX=0.25;exitY=1;exitDx=0;exitDy=0;fontStyle=1;fontSize=19;" edge="1" parent="1" source="SK8zxFsy-qk9dLqZPhYN-51" target="SK8zxFsy-qk9dLqZPhYN-53">
          <mxGeometry relative="1" as="geometry" />
        </mxCell>
        <mxCell id="SK8zxFsy-qk9dLqZPhYN-50" style="rounded=0;orthogonalLoop=1;jettySize=auto;html=1;exitX=0.75;exitY=1;exitDx=0;exitDy=0;entryX=0.5;entryY=0;entryDx=0;entryDy=0;fontStyle=1;fontSize=19;" edge="1" parent="1" source="SK8zxFsy-qk9dLqZPhYN-51" target="SK8zxFsy-qk9dLqZPhYN-59">
          <mxGeometry relative="1" as="geometry" />
        </mxCell>
        <mxCell id="SK8zxFsy-qk9dLqZPhYN-51" value="4" style="rounded=1;whiteSpace=wrap;html=1;fontStyle=1;fontSize=19;" vertex="1" parent="1">
          <mxGeometry x="550" y="540" width="80" height="50" as="geometry" />
        </mxCell>
        <mxCell id="SK8zxFsy-qk9dLqZPhYN-52" style="edgeStyle=orthogonalEdgeStyle;rounded=0;orthogonalLoop=1;jettySize=auto;html=1;exitX=0;exitY=0.5;exitDx=0;exitDy=0;entryX=0;entryY=0.5;entryDx=0;entryDy=0;fontStyle=1;fontSize=19;" edge="1" parent="1" source="SK8zxFsy-qk9dLqZPhYN-53" target="SK8zxFsy-qk9dLqZPhYN-48">
          <mxGeometry relative="1" as="geometry" />
        </mxCell>
        <mxCell id="SK8zxFsy-qk9dLqZPhYN-65" style="rounded=0;orthogonalLoop=1;jettySize=auto;html=1;exitX=1;exitY=1;exitDx=0;exitDy=0;entryX=0;entryY=0;entryDx=0;entryDy=0;" edge="1" parent="1" source="SK8zxFsy-qk9dLqZPhYN-53" target="SK8zxFsy-qk9dLqZPhYN-62">
          <mxGeometry relative="1" as="geometry" />
        </mxCell>
        <mxCell id="SK8zxFsy-qk9dLqZPhYN-53" value="6" style="rounded=1;whiteSpace=wrap;html=1;fontStyle=1;fontSize=19;" vertex="1" parent="1">
          <mxGeometry x="500" y="630" width="80" height="50" as="geometry" />
        </mxCell>
        <mxCell id="SK8zxFsy-qk9dLqZPhYN-54" style="edgeStyle=orthogonalEdgeStyle;rounded=0;orthogonalLoop=1;jettySize=auto;html=1;exitX=0.5;exitY=1;exitDx=0;exitDy=0;entryX=0.5;entryY=0;entryDx=0;entryDy=0;fontStyle=1;fontSize=19;strokeColor=#FF3333;" edge="1" parent="1" source="SK8zxFsy-qk9dLqZPhYN-55" target="SK8zxFsy-qk9dLqZPhYN-57">
          <mxGeometry relative="1" as="geometry" />
        </mxCell>
        <mxCell id="SK8zxFsy-qk9dLqZPhYN-55" value="3" style="rounded=1;whiteSpace=wrap;html=1;fontStyle=1;fontSize=19;" vertex="1" parent="1">
          <mxGeometry x="670" y="450" width="80" height="50" as="geometry" />
        </mxCell>
        <mxCell id="SK8zxFsy-qk9dLqZPhYN-56" style="rounded=0;orthogonalLoop=1;jettySize=auto;html=1;exitX=0.5;exitY=1;exitDx=0;exitDy=0;strokeColor=#FF6666;fontStyle=1;fontSize=19;" edge="1" parent="1" source="SK8zxFsy-qk9dLqZPhYN-57" target="SK8zxFsy-qk9dLqZPhYN-59">
          <mxGeometry relative="1" as="geometry" />
        </mxCell>
        <mxCell id="SK8zxFsy-qk9dLqZPhYN-57" value="5" style="rounded=1;whiteSpace=wrap;html=1;fontStyle=1;fontSize=19;" vertex="1" parent="1">
          <mxGeometry x="670" y="540" width="80" height="50" as="geometry" />
        </mxCell>
        <mxCell id="SK8zxFsy-qk9dLqZPhYN-58" style="edgeStyle=orthogonalEdgeStyle;rounded=0;orthogonalLoop=1;jettySize=auto;html=1;exitX=0.5;exitY=1;exitDx=0;exitDy=0;entryX=0.5;entryY=0;entryDx=0;entryDy=0;strokeColor=#FF6666;fontStyle=1;fontSize=19;" edge="1" parent="1" source="SK8zxFsy-qk9dLqZPhYN-59" target="SK8zxFsy-qk9dLqZPhYN-62">
          <mxGeometry relative="1" as="geometry" />
        </mxCell>
        <mxCell id="SK8zxFsy-qk9dLqZPhYN-59" value="7" style="rounded=1;whiteSpace=wrap;html=1;fontStyle=1;fontSize=19;" vertex="1" parent="1">
          <mxGeometry x="620" y="630" width="80" height="50" as="geometry" />
        </mxCell>
        <mxCell id="SK8zxFsy-qk9dLqZPhYN-61" style="edgeStyle=orthogonalEdgeStyle;rounded=0;orthogonalLoop=1;jettySize=auto;html=1;exitX=0.5;exitY=1;exitDx=0;exitDy=0;entryX=0.5;entryY=0;entryDx=0;entryDy=0;strokeColor=#FF6666;fontStyle=1;fontSize=19;" edge="1" parent="1" source="SK8zxFsy-qk9dLqZPhYN-62" target="SK8zxFsy-qk9dLqZPhYN-63">
          <mxGeometry relative="1" as="geometry" />
        </mxCell>
        <mxCell id="SK8zxFsy-qk9dLqZPhYN-62" value="8" style="rounded=1;whiteSpace=wrap;html=1;fontStyle=1;fontSize=19;" vertex="1" parent="1">
          <mxGeometry x="620" y="710" width="80" height="50" as="geometry" />
        </mxCell>
        <mxCell id="SK8zxFsy-qk9dLqZPhYN-63" value="9" style="rounded=1;whiteSpace=wrap;html=1;strokeColor=#FF0000;fontStyle=1;fontSize=19;" vertex="1" parent="1">
          <mxGeometry x="620" y="790" width="80" height="50" as="geometry" />
        </mxCell>
        <mxCell id="SK8zxFsy-qk9dLqZPhYN-64" style="edgeStyle=orthogonalEdgeStyle;rounded=0;orthogonalLoop=1;jettySize=auto;html=1;exitX=0.5;exitY=1;exitDx=0;exitDy=0;entryX=0.5;entryY=0;entryDx=0;entryDy=0;strokeColor=#FF6666;fontStyle=1;fontSize=19;" edge="1" parent="1">
          <mxGeometry relative="1" as="geometry">
            <mxPoint x="589.5799999999999" y="320" as="sourcePoint" />
            <mxPoint x="589.5799999999999" y="360" as="targetPoint" />
          </mxGeometry>
        </mxCell>
      </root>
    </mxGraphModel>
  </diagram>
</mxfile>
